<?xml version="1.0" encoding="UTF-8" standalone="no"?>
<svg
   xmlns:dc="http://purl.org/dc/elements/1.1/"
   xmlns:cc="http://creativecommons.org/ns#"
   xmlns:rdf="http://www.w3.org/1999/02/22-rdf-syntax-ns#"
   xmlns:svg="http://www.w3.org/2000/svg"
   xmlns="http://www.w3.org/2000/svg"
   xmlns:sodipodi="http://sodipodi.sourceforge.net/DTD/sodipodi-0.dtd"
   xmlns:inkscape="http://www.inkscape.org/namespaces/inkscape"
   data-name="Layer 1"
   viewBox="0 0 100 125"
   x="0px"
   y="0px"
   id="svg2"
   version="1.1"
   inkscape:version="0.91 r13725"
   sodipodi:docname="delete_icon.svg">
  <metadata
     id="metadata22">
    <rdf:RDF>
      <cc:Work
         rdf:about="">
        <dc:format>image/svg+xml</dc:format>
        <dc:type
           rdf:resource="http://purl.org/dc/dcmitype/StillImage" />
        <dc:title>Artboard 391</dc:title>
      </cc:Work>
    </rdf:RDF>
  </metadata>
  <defs
     id="defs20" />
  <sodipodi:namedview
     pagecolor="#ffffff"
     bordercolor="#666666"
     borderopacity="1"
     objecttolerance="10"
     gridtolerance="10"
     guidetolerance="10"
     inkscape:pageopacity="0"
     inkscape:pageshadow="2"
     inkscape:window-width="1920"
     inkscape:window-height="1056"
     id="namedview18"
     showgrid="false"
     inkscape:zoom="1.888"
     inkscape:cx="39.733051"
     inkscape:cy="13.754242"
     inkscape:window-x="0"
     inkscape:window-y="24"
     inkscape:window-maximized="1"
     inkscape:current-layer="svg2" />
  <title
     id="title4">Artboard 391</title>
  <path
     d="M6,34a8,8,0,0,0,8,8V82A16,16,0,0,0,30,98H70A16,16,0,0,0,86,82V42a8,8,0,0,0,8-8V26a8,8,0,0,0-8-8H70V10a8,8,0,0,0-8-8H38a8,8,0,0,0-8,8v8H14a8,8,0,0,0-8,8ZM78,82a8,8,0,0,1-8,8H30a8,8,0,0,1-8-8V42H78ZM38,10H62v8H38ZM14,26H86v8H14Z"
     id="path6" />
  <path
     d="M34,82a4,4,0,0,0,4-4V54a4,4,0,0,0-8,0V78A4,4,0,0,0,34,82Z"
     id="path8" />
  <path
     d="M50,82a4,4,0,0,0,4-4V54a4,4,0,0,0-8,0V78A4,4,0,0,0,50,82Z"
     id="path10" />
  <path
     d="M66,82a4,4,0,0,0,4-4V54a4,4,0,0,0-8,0V78A4,4,0,0,0,66,82Z"
     id="path12" />
</svg>
